<svg width="20" height="21" viewBox="0 0 20 21" fill="none" xmlns="http://www.w3.org/2000/svg">
<path d="M14.19 0.830078H5.81C2.17 0.830078 0 3.00008 0 6.64008V15.0101C0 18.6601 2.17 20.8301 5.81 20.8301H14.18C17.82 20.8301 19.99 18.6601 19.99 15.0201V6.64008C20 3.00008 17.83 0.830078 14.19 0.830078ZM5.63 16.9801C5.63 17.3901 5.29 17.7301 4.88 17.7301C4.47 17.7301 4.13 17.3901 4.13 16.9801V14.9101C4.13 14.5001 4.47 14.1601 4.88 14.1601C5.29 14.1601 5.63 14.5001 5.63 14.9101V16.9801ZM10.75 16.9801C10.75 17.3901 10.41 17.7301 10 17.7301C9.59 17.7301 9.25 17.3901 9.25 16.9801V12.8301C9.25 12.4201 9.59 12.0801 10 12.0801C10.41 12.0801 10.75 12.4201 10.75 12.8301V16.9801ZM15.87 16.9801C15.87 17.3901 15.53 17.7301 15.12 17.7301C14.71 17.7301 14.37 17.3901 14.37 16.9801V10.7601C14.37 10.3501 14.71 10.0101 15.12 10.0101C15.53 10.0101 15.87 10.3501 15.87 10.7601V16.9801ZM15.87 7.60008C15.87 8.01008 15.53 8.35008 15.12 8.35008C14.71 8.35008 14.37 8.01008 14.37 7.60008V6.63008C11.8287 9.25183 8.60333 11.1087 5.06 11.9901C5 12.0101 4.94 12.0101 4.88 12.0101C4.54 12.0101 4.24 11.7801 4.15 11.4401C4.05 11.0401 4.29 10.6301 4.7 10.5301C8.04433 9.69611 11.0804 7.92306 13.45 5.42008H12.2C11.79 5.42008 11.45 5.08008 11.45 4.67008C11.45 4.26008 11.79 3.92008 12.2 3.92008H15.13C15.17 3.92008 15.2 3.94008 15.24 3.94008C15.29 3.95008 15.34 3.95008 15.39 3.97008C15.44 3.99008 15.48 4.02008 15.53 4.05008C15.56 4.07008 15.59 4.08008 15.62 4.10008C15.63 4.11008 15.63 4.12008 15.64 4.12008C15.68 4.16008 15.71 4.20008 15.74 4.24008C15.77 4.28008 15.8 4.31008 15.81 4.35008C15.83 4.39008 15.83 4.43008 15.84 4.48008C15.85 4.53008 15.87 4.58008 15.87 4.64008C15.87 4.65008 15.88 4.66008 15.88 4.67008V7.60008H15.87Z" fill="#FF5D1A"/>
</svg>
