<svg width="24" height="25" viewBox="0 0 24 25" fill="none" xmlns="http://www.w3.org/2000/svg">
<g clip-path="url(#clip0_1_60780)">
<g clip-path="url(#clip1_1_60780)">
<g clip-path="url(#clip2_1_60780)">
<path d="M17.9 22.8299C18.9609 22.8299 19.9783 22.4085 20.7284 21.6583C21.4786 20.9082 21.9 19.8908 21.9 18.8299C21.9 17.769 21.4786 16.7516 20.7284 16.0015C19.9783 15.2513 18.9609 14.8299 17.9 14.8299H17.68L11.878 20.6279C11.7587 20.742 11.6637 20.879 11.5988 21.0308C11.5338 21.1825 11.5002 21.3458 11.5 21.5109C11.5 22.2239 12.077 22.8299 12.79 22.8299H17.9ZM13.284 5.7889L12.229 6.8439C11.7632 7.31136 11.5012 7.94401 11.5 8.6039V16.8419C11.5 17.8969 11.5 18.4239 11.813 18.5499C12.127 18.6759 12.492 18.2949 13.222 17.5339L19.06 11.4439C19.7946 10.675 20.1965 9.64752 20.1787 8.58426C20.1609 7.521 19.7248 6.50759 18.965 5.76365C18.2051 5.0197 17.1827 4.60518 16.1193 4.6099C15.0559 4.61463 14.0372 5.03823 13.284 5.7889Z" fill="#FF5D1A"/>
<path fill-rule="evenodd" clip-rule="evenodd" d="M10 6.83008V18.8301C10 19.8909 9.57857 20.9084 8.82843 21.6585C8.07828 22.4086 7.06087 22.8301 6 22.8301C4.93913 22.8301 3.92172 22.4086 3.17157 21.6585C2.42143 20.9084 2 19.8909 2 18.8301V6.83008C2 5.76921 2.42143 4.7518 3.17157 4.00165C3.92172 3.25151 4.93913 2.83008 6 2.83008C7.06087 2.83008 8.07828 3.25151 8.82843 4.00165C9.57857 4.7518 10 5.76921 10 6.83008ZM6 19.8301C6.26522 19.8301 6.51957 19.7247 6.70711 19.5372C6.89464 19.3496 7 19.0953 7 18.8301C7 18.5649 6.89464 18.3105 6.70711 18.123C6.51957 17.9354 6.26522 17.8301 6 17.8301C5.73478 17.8301 5.48043 17.9354 5.29289 18.123C5.10536 18.3105 5 18.5649 5 18.8301C5 19.0953 5.10536 19.3496 5.29289 19.5372C5.48043 19.7247 5.73478 19.8301 6 19.8301Z" fill="#FF5D1A"/>
</g>
</g>
</g>
<defs>
<clipPath id="clip0_1_60780">
<rect width="24" height="24" fill="white" transform="translate(0 0.830078)"/>
</clipPath>
<clipPath id="clip1_1_60780">
<rect width="24" height="24" fill="white" transform="translate(0 0.830078)"/>
</clipPath>
<clipPath id="clip2_1_60780">
<rect width="24" height="24" fill="white" transform="translate(0 0.830078)"/>
</clipPath>
</defs>
</svg>
