<svg width="21" height="17" viewBox="0 0 21 17" fill="none" xmlns="http://www.w3.org/2000/svg">
<path d="M14.39 1.61018L15.8 4.43018C15.99 4.82018 16.5 5.19018 16.93 5.27018L19.48 5.69018C21.11 5.96018 21.49 7.14018 20.32 8.32018L18.33 10.3102C18 10.6402 17.81 11.2902 17.92 11.7602L18.49 14.2202C18.94 16.1602 17.9 16.9202 16.19 15.9002L13.8 14.4802C13.37 14.2202 12.65 14.2202 12.22 14.4802L9.83 15.9002C8.12 16.9102 7.08 16.1602 7.53 14.2202L8.1 11.7602C8.19 11.2802 8 10.6302 7.67 10.3002L5.68 8.31018C4.51 7.14018 4.89 5.96018 6.52 5.68018L9.07 5.26018C9.5 5.19018 10.01 4.81018 10.2 4.42018L11.61 1.60018C12.38 0.0801787 13.62 0.080179 14.39 1.61018ZM7 2.15018H1C0.59 2.15018 0.25 1.81018 0.25 1.40018C0.25 0.990179 0.59 0.650179 1 0.650179H7C7.41 0.650179 7.75 0.990179 7.75 1.40018C7.75 1.81018 7.41 2.15018 7 2.15018ZM4 16.1502H1C0.59 16.1502 0.25 15.8102 0.25 15.4002C0.25 14.9902 0.59 14.6502 1 14.6502H4C4.41 14.6502 4.75 14.9902 4.75 15.4002C4.75 15.8102 4.41 16.1502 4 16.1502ZM2 9.15018H1C0.59 9.15018 0.25 8.81018 0.25 8.40018C0.25 7.99018 0.59 7.65018 1 7.65018H2C2.41 7.65018 2.75 7.99018 2.75 8.40018C2.75 8.81018 2.41 9.15018 2 9.15018Z" fill="#FF5D1A"/>
</svg>
