<svg width="17" height="21" viewBox="0 0 17 21" fill="none" xmlns="http://www.w3.org/2000/svg">
<path d="M2.06593 8.7443L5.12793 4.6013C7.10793 1.9233 8.09793 0.584301 9.02093 0.867301C9.94393 1.1503 9.94393 2.7923 9.94393 6.0773V6.3873C9.94393 7.5723 9.94393 8.1643 10.3219 8.5353L10.3419 8.5553C10.7289 8.9183 11.3459 8.9183 12.5789 8.9183C14.7979 8.9183 15.9069 8.9183 16.2819 9.5913L16.2999 9.6253C16.6539 10.3083 16.0119 11.1783 14.7269 12.9153L11.6649 17.0593C9.68493 19.7373 8.69493 21.0763 7.77193 20.7933C6.84893 20.5103 6.84893 18.8683 6.84893 15.5833V15.2733C6.84893 14.0883 6.84893 13.4963 6.46993 13.1253L6.44993 13.1053C6.06393 12.7423 5.44693 12.7423 4.21393 12.7423C1.99493 12.7423 0.88593 12.7423 0.51093 12.0693C0.504729 12.0581 0.498728 12.0467 0.49293 12.0353C0.13893 11.3523 0.78093 10.4833 2.06593 8.7453V8.7443Z" fill="#FF5D1A"/>
</svg>
