<svg width="18" height="20" viewBox="0 0 18 20" fill="none" xmlns="http://www.w3.org/2000/svg">
<path d="M10.4705 5.23992L12.9305 4.02992C13.2305 3.87992 13.3105 3.48992 13.0805 3.24992C12.1905 2.26992 11.2905 1.44992 10.5705 0.829923C10.4984 0.767172 10.4097 0.726624 10.3151 0.713174C10.2205 0.699725 10.124 0.713948 10.0373 0.754128C9.95058 0.794308 9.87736 0.858727 9.82647 0.939607C9.77557 1.02049 9.74917 1.11437 9.75046 1.20992V4.78992C9.75046 5.15992 10.1405 5.39992 10.4705 5.23992ZM9.75046 17.5699V19.2199C9.75046 19.5199 10.0205 19.7699 10.3205 19.7199C11.649 19.4967 12.9011 18.9466 13.9642 18.1192C15.0273 17.2918 15.8679 16.213 16.4105 14.9799C16.6005 14.5599 16.1405 14.1399 15.7205 14.3399L10.0305 17.1299C9.86046 17.2099 9.75046 17.3799 9.75046 17.5699ZM8.25046 1.18992C8.25158 1.09441 8.22531 1.00057 8.17476 0.919513C8.12422 0.838458 8.05151 0.773578 7.96525 0.73255C7.87899 0.691522 7.78277 0.676064 7.688 0.688004C7.59323 0.699943 7.50385 0.738782 7.43046 0.799923C5.07046 2.77992 0.880462 6.94992 0.900462 11.7299C0.900462 15.7499 3.84046 19.0799 7.68046 19.7199C7.98046 19.7699 8.25046 19.5199 8.25046 19.2199V1.18992ZM10.4405 10.2999L15.7305 8.07992C16.0005 7.95992 16.1305 7.64992 16.0005 7.38992C15.6305 6.65992 15.2005 5.94992 14.7305 5.28992C14.5905 5.08992 14.3305 5.02992 14.1105 5.12992L10.0205 7.11992C9.93631 7.16116 9.86544 7.22521 9.81593 7.30477C9.76643 7.38434 9.74027 7.47621 9.74046 7.56992V9.83992C9.75046 10.1899 10.1105 10.4399 10.4405 10.2999ZM16.8305 12.1399C16.9905 12.0599 17.0905 11.9099 17.0905 11.7399C17.0905 11.0999 17.0105 10.4699 16.8705 9.84992C16.8005 9.54992 16.4705 9.38992 16.1905 9.50992L10.0505 12.1299C9.87046 12.2099 9.75046 12.3899 9.75046 12.5899V14.7899C9.75046 15.1599 10.1405 15.3999 10.4705 15.2399L16.3705 12.3699L16.8305 12.1399Z" fill="#FF5D1A"/>
</svg>
